# xmcd
#
# Track frame offsets: 
#        150
#        16099
#        32423
#        44885
#        55045
#        74500
#        97185
#        112729
#        127998
#        147976
#
# Disc length: 2117 seconds
#
# Revision: 0
# Processed by: cddbd v1.5.2PL0 Copyright (c) Steve Scherf et al.
# Submitted via: ExactAudioCopy v0.99pb4
#
DISCID=8608430a
DTITLE=Dustin Welch - Whisky Priest
DYEAR=2009
DGENRE=Country
TTITLE0=One False Move
TTITLE1=Heartbreak
TTITLE2=Don't Tell Em Nothin
TTITLE3=Dirty Mind
TTITLE4=Whisky Priest
TTITLE5=Two Horses
TTITLE6=Lower East Side
TTITLE7=Empty Parking Lots
TTITLE8=Green Badge
TTITLE9=Poor House
EXTD=
EXTT0=
EXTT1=
EXTT2=
EXTT3=
EXTT4=
EXTT5=
EXTT6=
EXTT7=
EXTT8=
EXTT9=
PLAYORDER=
